<svg width="21" height="29" viewBox="0 0 21 29" fill="none" xmlns="http://www.w3.org/2000/svg">
<path d="M20.8125 3.15625C20.8116 2.336 20.4854 1.54959 19.9054 0.969581C19.3254 0.389575 18.539 0.0633531 17.7188 0.0625H3.28125C2.461 0.0633531 1.67459 0.389575 1.09458 0.969581C0.514575 1.54959 0.188353 2.336 0.1875 3.15625V25.8438C0.188353 26.664 0.514575 27.4504 1.09458 28.0304C1.67459 28.6104 2.461 28.9366 3.28125 28.9375H17.7188C18.539 28.9366 19.3254 28.6104 19.9054 28.0304C20.4854 27.4504 20.8116 26.664 20.8125 25.8438V3.15625ZM4.82812 25.8438C4.52218 25.8438 4.22311 25.753 3.96873 25.5831C3.71435 25.4131 3.51608 25.1715 3.399 24.8888C3.28192 24.6062 3.25129 24.2952 3.31097 23.9951C3.37066 23.695 3.51798 23.4194 3.73432 23.2031C3.95065 22.9867 4.22628 22.8394 4.52634 22.7797C4.82641 22.72 5.13743 22.7507 5.42009 22.8678C5.70274 22.9848 5.94433 23.1831 6.11431 23.4375C6.28428 23.6919 6.375 23.9909 6.375 24.2969C6.375 24.7071 6.21203 25.1006 5.92193 25.3907C5.63184 25.6808 5.23838 25.8438 4.82812 25.8438ZM4.82812 20.6875C4.52218 20.6875 4.22311 20.5968 3.96873 20.4268C3.71435 20.2568 3.51608 20.0152 3.399 19.7326C3.28192 19.4499 3.25129 19.1389 3.31097 18.8388C3.37066 18.5388 3.51798 18.2632 3.73432 18.0468C3.95065 17.8305 4.22628 17.6832 4.52634 17.6235C4.82641 17.5638 5.13743 17.5944 5.42009 17.7115C5.70274 17.8286 5.94433 18.0268 6.11431 18.2812C6.28428 18.5356 6.375 18.8347 6.375 19.1406C6.375 19.5509 6.21203 19.9443 5.92193 20.2344C5.63184 20.5245 5.23838 20.6875 4.82812 20.6875ZM4.82812 15.5312C4.52218 15.5312 4.22311 15.4405 3.96873 15.2706C3.71435 15.1006 3.51608 14.859 3.399 14.5763C3.28192 14.2937 3.25129 13.9827 3.31097 13.6826C3.37066 13.3825 3.51798 13.1069 3.73432 12.8906C3.95065 12.6742 4.22628 12.5269 4.52634 12.4672C4.82641 12.4075 5.13743 12.4382 5.42009 12.5552C5.70274 12.6723 5.94433 12.8706 6.11431 13.125C6.28428 13.3794 6.375 13.6784 6.375 13.9844C6.375 14.3946 6.21203 14.7881 5.92193 15.0782C5.63184 15.3683 5.23838 15.5312 4.82812 15.5312ZM10.5 25.8438C10.1941 25.8438 9.89499 25.753 9.6406 25.5831C9.38622 25.4131 9.18795 25.1715 9.07087 24.8888C8.95379 24.6062 8.92316 24.2952 8.98285 23.9951C9.04253 23.695 9.18986 23.4194 9.40619 23.2031C9.62253 22.9867 9.89816 22.8394 10.1982 22.7797C10.4983 22.72 10.8093 22.7507 11.092 22.8678C11.3746 22.9848 11.6162 23.1831 11.7862 23.4375C11.9562 23.6919 12.0469 23.9909 12.0469 24.2969C12.0469 24.7071 11.8839 25.1006 11.5938 25.3907C11.3037 25.6808 10.9103 25.8438 10.5 25.8438ZM10.5 20.6875C10.1941 20.6875 9.89499 20.5968 9.6406 20.4268C9.38622 20.2568 9.18795 20.0152 9.07087 19.7326C8.95379 19.4499 8.92316 19.1389 8.98285 18.8388C9.04253 18.5388 9.18986 18.2632 9.40619 18.0468C9.62253 17.8305 9.89816 17.6832 10.1982 17.6235C10.4983 17.5638 10.8093 17.5944 11.092 17.7115C11.3746 17.8286 11.6162 18.0268 11.7862 18.2812C11.9562 18.5356 12.0469 18.8347 12.0469 19.1406C12.0469 19.5509 11.8839 19.9443 11.5938 20.2344C11.3037 20.5245 10.9103 20.6875 10.5 20.6875ZM10.5 15.5312C10.1941 15.5312 9.89499 15.4405 9.6406 15.2706C9.38622 15.1006 9.18795 14.859 9.07087 14.5763C8.95379 14.2937 8.92316 13.9827 8.98285 13.6826C9.04253 13.3825 9.18986 13.1069 9.40619 12.8906C9.62253 12.6742 9.89816 12.5269 10.1982 12.4672C10.4983 12.4075 10.8093 12.4382 11.092 12.5552C11.3746 12.6723 11.6162 12.8706 11.7862 13.125C11.9562 13.3794 12.0469 13.6784 12.0469 13.9844C12.0469 14.3946 11.8839 14.7881 11.5938 15.0782C11.3037 15.3683 10.9103 15.5312 10.5 15.5312ZM17.7188 24.2969C17.7188 24.7071 17.5558 25.1006 17.2657 25.3907C16.9756 25.6808 16.5821 25.8438 16.1719 25.8438C15.7616 25.8438 15.3682 25.6808 15.0781 25.3907C14.788 25.1006 14.625 24.7071 14.625 24.2969V19.1406C14.625 18.7304 14.788 18.3369 15.0781 18.0468C15.3682 17.7567 15.7616 17.5938 16.1719 17.5938C16.5821 17.5938 16.9756 17.7567 17.2657 18.0468C17.5558 18.3369 17.7188 18.7304 17.7188 19.1406V24.2969ZM16.1719 15.5312C15.8659 15.5312 15.5669 15.4405 15.3125 15.2706C15.0581 15.1006 14.8598 14.859 14.7428 14.5763C14.6257 14.2937 14.595 13.9827 14.6547 13.6826C14.7144 13.3825 14.8617 13.1069 15.0781 12.8906C15.2944 12.6742 15.57 12.5269 15.8701 12.4672C16.1702 12.4075 16.4812 12.4382 16.7638 12.5552C17.0465 12.6723 17.2881 12.8706 17.4581 13.125C17.628 13.3794 17.7188 13.6784 17.7188 13.9844C17.7188 14.3946 17.5558 14.7881 17.2657 15.0782C16.9756 15.3683 16.5821 15.5312 16.1719 15.5312ZM17.4165 9.04146C17.2232 9.23489 16.961 9.34362 16.6875 9.34375H4.3125C4.039 9.34375 3.77669 9.2351 3.5833 9.0417C3.3899 8.84831 3.28125 8.586 3.28125 8.3125V4.1875C3.28125 3.914 3.3899 3.65169 3.5833 3.4583C3.77669 3.2649 4.039 3.15625 4.3125 3.15625H16.6875C16.961 3.15625 17.2233 3.2649 17.4167 3.4583C17.6101 3.65169 17.7188 3.914 17.7188 4.1875V8.3125C17.7186 8.58596 17.6099 8.84817 17.4165 9.04146Z" fill="#666666"/>
</svg>
